<?xml version="1.0" standalone="no"?><!DOCTYPE svg PUBLIC "-//W3C//DTD SVG 1.1//EN" "http://www.w3.org/Graphics/SVG/1.1/DTD/svg11.dtd"><svg t="1681806271827" class="icon" viewBox="0 0 1024 1024" version="1.1" xmlns="http://www.w3.org/2000/svg" p-id="2677" xmlns:xlink="http://www.w3.org/1999/xlink" width="200" height="200"><path d="M942.592 608.768c-0.512-6.144-4.608-57.344-34.304-76.288 2.048 1.024 4.608 2.56 6.656 4.608-5.12-5.632-13.824-13.824-26.112-20.48-20.48-10.24-39.936-10.752-49.152-10.24-10.24 0-39.424 1.024-66.56 21.504-37.376 27.136-45.056 68.096-46.08 76.288-4.608 30.72-9.216 61.952-13.824 92.672-1.536 12.288-5.12 30.72-11.776 52.224l-3.072 10.752c-22.528 3.072-39.424 3.072-44.032 3.072-13.824 0.512-197.12 4.096-281.6-130.048-26.624-42.496-35.328-85.504-38.4-117.248 0-18.944 3.072-50.176 18.944-84.992 27.136-58.88 75.776-89.6 75.776-89.6 0.512 0 0.512-0.512 1.024-0.512 16.896-9.216 80.896-40.448 156.672-20.48 1.536 0.512 3.584 1.024 5.12 1.536 35.328 10.24 66.56 31.744 90.112 60.928 1.024 1.536 3.072 4.096 4.608 5.632 19.456 23.552 21.504 26.112 25.6 29.184 14.848 12.8 31.744 17.408 43.008 20.48 5.12 1.536 10.24 3.072 14.848 3.584 14.848 2.56 30.208 2.56 44.032-3.072 2.048-0.512 5.632-2.048 10.24-4.608-0.512 0.512-1.024 1.024-1.536 1.024 8.704-2.56 42.496-13.824 62.464-49.152 13.824-23.552 14.336-47.104 13.824-57.344-0.512-8.704-1.536-20.992-6.144-35.328-7.68-25.088-20.992-42.496-37.376-60.928-17.408-19.456-44.544-49.664-87.04-76.288-44.544-28.16-93.184-45.568-134.656-55.808-93.184-22.528-192-14.848-279.552 25.6-26.624 12.288-54.272 29.184-81.408 49.664C117.76 295.936 108.544 479.232 108.032 506.368c0 34.816 3.584 87.04 25.088 146.432 16.384 44.544 36.864 78.848 54.272 102.912 9.728 10.24 24.064 24.576 43.52 39.424-18.944-14.336-33.792-28.672-44.544-39.424 22.016 33.792 83.968 117.248 197.12 156.16 47.104 15.872 89.088 19.456 121.344 19.456h13.312c6.656 0 13.824-0.512 20.992-1.024-1.024 0-1.536 0.512-2.56 0.512 23.552-1.024 86.016-7.68 145.92-53.248 25.6-19.456 43.52-40.96 56.832-59.904 62.976-14.848 136.192-47.104 175.616-118.272 8.704-13.824 30.72-47.104 27.648-90.624z m-99.328-64c-0.512 0.512-1.024 0.512-1.024 1.024 0-0.512 0.512-0.512 1.024-1.024z m-11.264 9.728c-0.512 0.512-0.512 0.512 0 0-0.512 0.512-0.512 0.512 0 0z m5.632-5.12l-1.024 1.024c0-0.512 0.512-0.512 1.024-1.024zM352.256 404.48c11.776-13.824 23.552-25.6 34.816-34.816-11.264 9.216-23.04 20.992-34.816 34.816z m-9.728 12.288c0.512-0.512 0.512-1.024 1.024-1.024-0.512 0-0.512 0.512-1.024 1.024z m4.096-5.12c2.048-2.56 3.584-4.608 5.632-6.656-2.048 2.048-4.096 4.608-5.632 6.656z m41.472-43.008l1.024-1.024c-0.512 0.512-1.024 0.512-1.024 1.024z m125.44 499.2c-1.536 0-3.072 0.512-4.608 0.512-33.792-1.536-99.84-9.216-167.424-51.712-56.32-35.328-89.6-79.36-106.496-105.472-13.312-20.48-29.184-47.616-42.496-83.456-17.408-50.688-19.456-96.768-18.944-126.976 1.024-23.552 9.728-167.424 131.584-268.8 35.328-29.696 72.192-48.64 106.496-61.44 83.968-30.72 176.64-27.136 258.048 8.704 7.168 3.072 13.824 6.144 20.992 9.728 44.544 23.04 71.168 47.616 103.936 78.848 11.264 10.752 20.48 20.48 28.672 30.208 3.584 6.144 7.68 14.336 9.728 24.576 0.512 5.12 0.512 9.728 0.512 13.824-1.024 7.168-4.096 18.432-13.824 27.136-1.024 0.512-1.536 1.024-2.56 1.536-15.872 12.8-36.864 13.312-53.76 3.584-0.512-0.512-1.024-1.024-1.536-1.024-10.752-6.144-18.432-14.848-23.04-21.504s-9.728-12.8-14.848-18.432c-14.336-14.848-34.304-32.768-61.44-48.128-50.688-29.184-99.328-32.768-124.416-32.768-16.896 0-124.416 1.536-202.752 89.088-63.488 71.168-67.584 152.576-67.584 174.592 1.024 27.136 6.144 67.072 25.6 111.104 19.968 46.08 47.104 79.872 70.144 101.888 93.696 97.28 251.904 105.984 264.704 105.984h8.704c-11.264 8.192-24.576 15.872-39.424 22.016-8.192 3.584-29.696 11.776-75.776 14.848-2.56 1.024-5.12 1.536-8.192 1.536z m364.032-255.488c-5.12 26.624-14.848 47.104-24.064 60.928-19.968 31.744-48.64 52.224-78.336 65.536 5.12-20.48 7.68-37.888 9.216-51.2 2.56-24.064 2.56-48.64 13.824-80.384 4.608-12.288 9.728-22.016 13.312-28.16 3.584-5.632 7.68-10.752 11.776-15.36-5.12 6.144-9.216 11.776-11.776 15.872 17.408-13.312 39.424-13.312 53.76 1.024 13.312 11.776 12.288 29.696 12.288 31.744z m-50.688-52.736c-0.512 0.512-1.024 1.024-1.024 1.536 0.512-0.512 1.024-1.024 1.024-1.536z" fill="#AD78F9" p-id="2678"></path></svg>